<?xml version="1.0" encoding="UTF-8"?>
<svg viewBox="0 0 1440 1440" xmlns="http://www.w3.org/2000/svg">
 <path transform="rotate(-.84073 967.34 728.77)" d="m1288.7 967.86s-17.757-25.887-40.78-25.458c-10.724-8.8761-22.126-16.313-34.175-22.131-19.252-9.3098-36.167-22.898-50.961-38.932-18.853-106.59-51.549-177.5-81.186-222.91l30.359-24.835-22.574-33.866 33.861 22.579 36.133-49.676-13.559-58.702 31.62 27.092 27.087-76.768-20.318-72.245 38.379 18.062v-99.342l-39.276-45.432h36.132l-36.132-121.94-85.814-4.5128 33.268-42.548-105.53-52.296-63.225 45.163 25.768-56.141-130.95 9.0306-7.7155 92.274-46.04-95.138-87.303 2.0026 10.042 33.124-55.195-27.097-56.191 24.084 14.041 28.103-51.176-6.0272-56.196 68.235 32.113 9.0358-53.188 35.116-17.06 81.286 37.129 9.0306-39.136 20.074 8.0291 110.38 33.109-17.06-20.064 46.164 20.064 62.218 36.133-11.043-20.074 37.134 45.163 76.27 21.065-22.076-6.022 35.122 36.721 35.246c-38.917 57.984-66.084 154.78-49.601 316.43 18.126 177.81 35.639 277.88 44.869 326.91-16.258 16.577-25.966 37.378-25.966 59.992 0 54.034 55.265 52.689 123.43 52.689 68.166 0 123.43 1.3502 123.43-52.689 0-11.88-2.6748-23.257-7.5714-33.792 33.463 4.3785 77.575 6.2762 122.46-2.9736-2.7593 8.1244-4.2538 16.657-4.2538 25.478 0 54.034 55.27 52.68 123.43 52.68 36.356 0 69.028 0.3833 91.616-7.4567 1.838 0.224 2.8444 0.30872 2.8444 0.30872 544.91 66.243 108.94-438.22 108.94-438.22zm-80.23 398.7c0.16418-1.9277 0.27417-3.9099 0.27417-6.0022 0-3.3622-0.2146-6.6797-0.62817-9.957 17.947 10.301 45.911 11.925 78.447 12.169-25.04 3.6014-51.978 5.0261-78.093 3.7905zm150.36-146.42c-1.1255-19.75-3.1382-39.092-6.017-57.85 12.253 23.75 23.052 47.345 30.927 69.192-7.671-4.5124-16.029-8.3279-24.91-11.342z" fill="#ffcb09"/>
 <path d="m786.88 1336.5c24.706 41.796 14.037 76.594 19.342 69.75 10.629-36.64-11.272-69.217-19.342-69.75zm-135.87 68.021c5.1798 6.9335-13.609-41.194 20.502-69.416-8.079 0.39331-40.566 30.464-20.502 69.416zm73.689-67.005s12.05 34.06-1.1357 72.738c0 0 8.7971 8.129 11.337-31.685 2.6352-41.353-13.214-53.975-10.201-41.054zm105.99-1025.8c10.166-3.0682 14.838-17.424 10.425-32.068-4.4083-14.679-16.223-24.068-26.369-21.025-10.166 3.0584-14.848 17.404-10.44 32.078 4.3979 14.629 16.223 24.049 26.384 21.015zm75.388 3.4072c10.076-0.44327 17.768-12.861 17.155-27.78-0.63238-14.918-9.3195-26.673-19.436-26.25-10.096 0.41315-17.777 12.876-17.154 27.779 0.62201 14.913 9.3292 26.689 19.436 26.25zm382.83 652.63s-17.758-25.892-40.78-25.463c53.586 44.332 90.291 124.68 104.9 219.88 35.545 68.923 59.006 136.55 33.483 163.71-0.009644-3.1377-0.089478-6.58-0.28882-10.619-2.0674-41.502-21.533-51.315-15.092-39.196 0 0 10.893 25.473 10.679 54.099-11.268 9.0255-28.472 16.776-49.148 22.798-0.26868-4.3684-22.893-33.821-8.1586-79.781-9.6733 4.5526-20.124 45.078 6.4403 79.976 0.17456 0.079834 0.31372 0.12476 0.46326 0.18433-43.28 12.368-101.3 17.22-151.79 10.525-1.0762-27.396-16.398-46.658-22.828-46.977 11.302 16.901 15.68 33.438 17.449 46.224-27.984-4.214-53.312-12.119-72.121-24.392 0.72717-7.1974 1.489-11.725 1.489-11.725 1.9574-8.378-3.3272-5.8577-6.5748 8.1741-29.578-22.061-39.575-56.729-11.168-107.45l84.305-53.237-14.231-17.214-33.772 21.03 24.552-47.121-11.761-9.0956-19.625-8.1738-25.568 44.043 21.464-50.065-47.778-2.0173 1.3949 58.567-7.0734-27.755-18.779 2.8743 6.6003 74.228c-28.661 52.097-27.461 90.267-11.935 118.18-8.4031 10.789-17.549 35.072-11.561 63.753 4.7969 6.2014-0.3338-25.563 14.226-59.284 13.908 21.882 36.785 37.054 60.266 47.504 3.1237 21.523 8.1545 15.785 8.1545 15.785-1.0264-4.3785-1.7986-8.8416-2.3811-13.315 38.972 16.059 77.635 19.586 77.635 19.586 544.89 66.218 108.92-438.24 108.92-438.24zm-244.52-332.06l18.061 38.379 49.676-40.64-22.579-33.861 33.866 22.574 36.123-49.671-13.548-58.697 31.61 27.092 27.092-76.768-20.318-72.245 38.379 18.062v-99.342l-39.276-45.432h36.133l-36.133-121.94-85.814-4.5129 33.274-42.548-105.53-52.296-63.224 45.163 25.762-56.141-130.95 9.0306-7.7208 92.274-46.03-95.133-87.303 2.0023 10.031 33.114-55.185-27.092-56.196 24.084 14.047 28.103-51.176-6.0223-56.196 68.236 32.113 9.0355-53.193 35.117-17.06 81.286 37.134 9.0306-39.136 20.069 8.0248 110.39 33.119-17.06-20.068 46.164 20.068 62.218 36.123-11.038-20.069 37.134 45.154 76.265 21.07-22.076-6.0171 35.126 50.174 48.162 11.038-28.098 22.081 50.174 47.166 22.081 17.06-20.064-9.0306 27.087 45.154 23.082 18.066-37.129-4.0198 47.161 22.081 10.037 13.046-56.196 8.0193 56.196 38.135 5.0157v-71.244l17.06 57.198 41.149-13.05 7.0229-55.19 8.0195 42.15 23.645-18.998 4.2636-40.646 13.548 36.123 54.438-31.61-2.2517-49.666zm8.8215-450.7c45.064 41.905 4.0349 83.069-33.702 79.358 0 0-2.2612-3.7908-6.3406-9.514 22.22-2.1716 42.074-26.489 15.471-51.225-26.544-24.686-47.19 0.35873-54.214 11.023-2.9787-2.1169-6.0268-4.1292-9.1948-5.8925 0.004883 0 36.964-71.189 87.98-23.75zm-317.4-44.222c62.208-31.361 77.899 47.305 77.899 47.305-4.8765 1.1206-9.6782 2.6896-14.366 4.5128-3.2927-11.322-15.9-43.669-49.338-26.808-33.826 17.05-18.998 47.724 3.3126 54.448-4.5426 3.671-7.2222 6.1518-7.2222 6.1518-37.278-6.9438-65.237-57.905-10.286-85.609zm291.75 354.93c-10.923 70.766-101.81 115.46-203 99.825-101.18-15.631-174.36-85.664-163.43-156.42 3.3273-21.543 14.071-40.66 30.25-56.4 0.47797-5.4094 1.131-10.844 1.9725-16.313 17.19-111.3 105.7-190.01 197.69-175.8 91.99 14.206 152.62 115.95 135.43 227.25-1.3749 8.9163-3.2178 17.623-5.4791 26.086 6.809 16.657 9.2848 34.195 6.5651 51.773zm-99.532 19.217c-0.74731 7.0283-7.1627 15.96-21.07 19.316-14.55 3.5166-34.619 4.2638-46.663-23.082 0 0-6.0421-39.091-3.5065-56.954 7.6059-2.1965 34.683-14.037 43.784-34.055 10.126-22.285 2.0222-23.292-49.622-29.368-51.654-6.0771-9.1205 53.671-9.1205 53.671s7.3822 7.377 11.437 9.5337c-0.52295 6.386-1.2952 25.02 3.2627 57.173 0 0-2.2564 27.346-28.347 29.104-31.076 2.087-39.385-17.558-40.142-22.081-0.74731-4.5177-2.4456-0.56268-2.4456-0.56268s-0.67737 28.631 42.09 27.411c23.476-0.67731 31.107-24.845 31.107-24.845s12.353 21.951 37.01 20.457c37.851-2.2913 35.62-29.418 35.62-29.418s-2.6401-3.3272-3.3922 3.7009z" fill="#a26327"/>
 <text transform="matrix(1 0 0 29.909 0 -8918.5)" x="203.823448" y="330.245055" font-family="Arial" font-size="24" stroke-width="0" text-anchor="middle" xml:space="preserve"/>
</svg>
