<?xml version="1.0" encoding="UTF-8"?>
<svg viewBox="0 0 1440 1440" xmlns="http://www.w3.org/2000/svg">
 <path d="m1429 437.8s-0.25098-2.8327-2.0079-2.8327c-1.3267 0-1.9961 2.4979-1.9961 2.4979-19.477 55.92-51.085 92.553-85.478 116.58-0.61536-1.0579-1.219-2.1032-1.8107-3.083-22.232-36.658-50.105-97.532-89.021-146.34 30.903-6.2695 65.367-32.535 75.264-39.963 14.247-10.692 3.562-58.191-60.569-89.07-44.839-21.586-51.927 46.788-52.142 89.888-31.053-26.05-67.908-41.702-112.22-35.689 0 0-61.28-6.1382-118.03 53.271-0.22107-39.605-8.0499-90.342-47.75-83.72-64.131 10.691-90.252 92.631-64.131 102.13 16.955 6.1674 49.901 24.312 76.149 30.473-9.3528 16.535-18.078 35.732-25.805 58.005-93.032-76.477-200.1-76.352-279.42-46.979-112.01 41.48-199.71 4.2968-199.71 4.2968-237.54-182.66-659.28 178.25-302.8 500.37 8.4204 7.5958 16.942 14.755 25.5 21.687 39.509 66.647 82.531 153.21 77.78 207.73-8.5879 98.781-44.911 203.44 0 223.34 36.216 16.046 208.31 10.733 201.87-45.102-0.37058-3.1793-0.95016-6.3761-1.6316-9.5919 0.48407 0.2627 0.90863 0.604 1.4106 0.84912 79.459 38.648 162.48-10.458 100.5-104.25-27.634-41.816-27.365-95.422-17.833-143.46 32.146 0.71143 63.694-0.81262 94.292-3.9918 21.144 74.613 41.666 168.7 25.202 209.85-29.319 73.305-89.117 182.39 182.6 111.95 12-3.1144 15.544-16.309 13.93-34.866 47.887 20.362 134.43 9.8784 158.15-24.287 33.317-47.977-39.981-42.653-47.977-134.61-5.8088-66.742 29.797-193.1 49.776-257.41 45.455 21.515 109.21 32.344 198.67 19.094 205.64-30.467 213.12-193.35 183.89-314.04 68.684-85.268 50.607-205.45 45.353-232.71zm-1022.5 647.6c-3.4302 56.828-8.7253 119-4.7273 169.05-15.813-32.893-31.698-71.02-38.564-118.2-2.964-20.295-4.4044-41.762-4.8527-63.145 16.046 4.8229 32.098 8.9227 48.144 12.299zm410.29 209.86c-7.0282-18.204-14.66-36.126-21.58-51.898-21.257-48.365-7.8048-124.59 8.5878-187.84 1.8705-0.5918 3.7413-1.1832 5.5998-1.7815 29.044 157.13 17.205 206.02 7.3926 241.52z" fill="#b3b3b3"/>
 <g fill="#3f3f3f">
  <path d="m1226.7 386.16s-8.9884-105.47 35.158-84.21c44.146 21.257 51.509 53.953 41.702 61.316-9.8131 7.3622-54.796 41.701-76.86 22.894z"/>
  <path d="m967.89 411.04s13.076-95.661-31.058-88.298c-44.164 7.3564-62.146 63.766-44.164 70.309s62.152 32.696 75.222 17.988z"/>
  <path d="m1170.8 599.51c0.095459 171.74 45.736 155.26 45.736 155.26 255.96-34.346 220.27-276.67 212.53-316.88 0 0-0.25098-2.8327-2.0081-2.8327-1.3269 0-1.9962 2.4979-1.9962 2.4979-60.019 172.28-234.91 162.23-252.78 160.74 0 0-0.63367 0.16779-0.78894 0.28742-0.32874 0.24512-0.69312 0.93231-0.69312 0.93231z"/>
  <path d="m1188.9 507.69c0.526 12.807 8.0021 22.913 16.68 22.542 8.6594-0.3822 15.269-11.051 14.743-23.857-0.54968-12.813-8.0079-22.901-16.691-22.537-8.6718 0.36475-15.27 11.056-14.731 23.852z"/>
  <path d="m1118.2 509.26c3.771 12.562 13.918 20.648 22.644 18.042 8.7253-2.6357 12.741-14.959 8.9584-27.526-3.7891-12.604-13.93-20.666-22.644-18.054-8.7253 2.6291-12.747 14.94-8.9585 27.538z"/>
  <path d="m1291.7 794.01c-8.0498 28.495 1.7391 55.878 21.867 61.076 20.17 5.2116 43.005-13.631 51.114-42.132 8.0619-28.512-1.7749-55.835-21.908-61.095-20.14-5.187-42.999 13.703-51.073 42.15z"/>
  <path d="m1090.4 836.84c15.329 31.507 43.943 49.172 63.778 39.401 19.823-9.7113 23.451-43.16 8.074-74.654-15.341-31.495-43.883-49.155-63.718-39.419-19.829 9.7946-23.528 43.183-8.1337 74.672z"/>
  <path d="m716.4 1419.8s-6.9622-52.382 20.17-53.074c27.144-0.70544 26.439 52.256 26.439 52.256s-22.339 11.857-46.608 0.8186z"/>
  <path d="m775.75 1413.4s-10.225-43.011 9.8667-46.883c0 0 27.168-2.5516 26.875 41.301 0 0-11.014 14.039-36.742 5.5824z"/>
  <path d="m695.61 1426.1s4.4103-47.982-16.04-48.94c0 0-26.397 0.16772-21.466 41.482 0 0 9.9264 12.394 37.507 7.4578z"/>
  <path d="m932.39 1379.7s-19.022-40.859 2.8806-48.341c21.915-7.5001 37.034 37.775 37.034 37.775s-17.349 13.363-39.915 10.566z"/>
  <path d="m977.12 1360.1s-23.48-29.517-9.3586-39.783c0 0 20.044-11.814 35.72 22.153-0.006226 0-3.4185 14.827-26.361 17.63z"/>
  <path d="m918.4 1383.2s3.7771-40.93-13.662-41.731c0 0-22.518 0.13708-18.311 35.373 0 0 8.4562 10.578 31.972 6.3585z"/>
  <path d="m497.96 1346.2s-5.9762-45.019 17.331-45.623c23.331-0.604 22.722 44.923 22.722 44.923s-19.196 10.189-40.053 0.69983z"/>
  <path d="m486.33 1346.7s3.556-38.637-12.908-39.407c0 0-21.269 0.12537-17.301 33.406 0.006195 0 7.9962 9.9871 30.21 6.0011z"/>
  <path d="m325.46 1393.5s-6.9622-52.387 20.164-53.081c27.162-0.70459 26.438 52.257 26.438 52.257s-22.333 11.862-46.602 0.82434z"/>
  <path d="m384.42 1383.9s-10.219-43.022 9.8788-46.89c0 0 27.156-2.5519 26.869 41.302 0 0-11.02 14.037-36.748 5.5872z"/>
  <path d="m291.14 1395.4s4.4165-47.988-16.028-48.945c0 0-26.403 0.16199-21.478 41.475 0.006195 0 9.9265 12.413 37.507 7.4701z"/>
  <path d="m550.21 1290.9c-16.016 3.0837-7.8708 37.351-7.8708 37.351 5.9164 1.9428 10.835 2.3723 14.863 2.0376 5.343-9.1315 7.9783-20.199 7.058-33.006-6.2093-7.0637-14.05-6.3826-14.05-6.3826z"/>
  <path d="m1162.8 964.38s-142.72 21.395-148-124.26c0 0-1.4163-5.146 2.1696-6.8969 4.4639-2.1754 5.8325 0.67554 5.8325 0.67554 1.7155 141.21 139.84 124.36 139.84 124.36s3.9382-0.72876 4.3567 1.8348c0.40601 2.5461-0.31116 4.5961-4.1954 4.2911z"/>
 </g>
</svg>
